<?xml version="1.0" encoding="utf-8"?>
<!-- Generator: Adobe Illustrator 27.5.0, SVG Export Plug-In . SVG Version: 6.00 Build 0)  -->
<svg version="1.1" xmlns="http://www.w3.org/2000/svg" xmlns:xlink="http://www.w3.org/1999/xlink" x="0px" y="0px"
	viewBox="0 0 3710 3710" style="enable-background:new 0 0 3710 3710;" xml:space="preserve">
	<g id="Illustration">
		<g>
			<linearGradient id="SVGID_1_" gradientUnits="userSpaceOnUse" x1="3608.6077" y1="3463.1184" x2="1483.5118"
				y2="1556.7806">
				<stop offset="0" style="stop-color:#7a0dda" />
				<stop offset="1" style="stop-color:#0364db" />
			</linearGradient>
			<path style="opacity:0.3;fill:url(#SVGID_1_);" d="M2900.447,2803.264c-71.528,73.729-135.529,117.069-184.53,149.788
			c-477.9,319.098-1024.192,227.126-1193.092,195.691c-272.499-50.718-502.526-86.497-700.161-265.052
			c-449.085-405.731-427.243-1252.115-84.087-1776.413c40.688-62.167,383.324-570.06,930.799-641.626
			c13.391-1.75,23.381-2.747,32.132-3.674c84.693-8.967,609.519-56.293,1037.463,302.238
			c61.258,51.322,159.84,143.893,251.257,285.08C3324.491,1565.539,3325.55,2365.085,2900.447,2803.264z" />
			<g>

				<linearGradient id="SVGID_00000024695390701455376420000016432812306904476808_" gradientUnits="userSpaceOnUse"
					x1="1987.5518" y1="2722.5522" x2="9.6555" y2="670.9438">
					<stop offset="0" style="stop-color:#0364db" />
					<stop offset="1" style="stop-color:#7A1DBC" />
				</linearGradient>
				<path style="fill:url(#SVGID_00000024695390701455376420000016432812306904476808_);" d="M1696.863,3153.082
				c0,0-244.094-282.649-436.184-883.563c-179.427-561.299,99.523-1394.895-513.023-1722.465
				c-20.631-11.033-44.543,7.877-38.546,30.491c35.453,133.7,114.543,480.855,89.166,836.565
				C765.881,1868.17,915.664,2975.491,1696.863,3153.082z" />
				<path style="opacity:0.47;fill:#FFFFFF;" d="M861.201,771.121l2.286,2.034l1.817,1.739c1.215,1.151,2.356,2.289,3.447,3.415
				c2.258,2.257,4.389,4.539,6.514,6.823c4.232,4.583,8.344,9.208,12.308,13.932c4.05,4.672,7.824,9.51,11.7,14.294
				c3.683,4.904,7.528,9.709,11.073,14.703c14.46,19.8,27.714,40.382,39.943,61.526c24.524,42.265,44.452,87.021,60.593,132.979
				c15.986,46.028,28.226,93.291,36.787,141.16c8.575,47.88,13.098,96.386,14.558,144.869c1.421,48.5-0.412,97.005-4.84,145.203
				l-3.792,36.098l-4.999,35.93c-1.633,12.086-3.45,23.592-5.168,35.418c-1.783,11.746-3.509,23.5-4.866,35.308
				c-12.15,94.286-17.607,189.506-17.168,284.704l0.383,35.706l1.136,35.694c0.284,11.904,0.958,23.788,1.628,35.676
				c0.727,11.882,1.12,23.79,2.12,35.654c3.189,47.528,8.303,94.906,14.444,142.15c6.336,47.224,14.316,94.218,23.61,140.969
				c9.625,46.68,20.89,93.019,33.695,138.949c13.107,45.841,28.031,91.159,44.722,135.84c16.843,44.623,35.806,88.446,56.76,131.322
				c20.871,42.926,44.461,84.546,70.502,124.59c26.034,40.049,54.601,78.518,86.032,114.626
				c-32.327-35.302-61.915-73.109-89.037-112.618c-27.131-39.509-51.879-80.715-73.939-123.324
				c-22.111-42.572-42.456-86.127-60.176-130.76c-17.679-44.639-33.601-89.98-47.706-135.898
				c-13.802-46.005-26.067-92.475-36.688-139.339c-10.273-46.932-19.302-94.156-26.548-141.676
				c-6.898-47.56-12.76-95.296-16.687-143.22c-1.185-11.964-1.761-23.972-2.671-35.96c-0.852-11.99-1.709-23.984-2.174-35.998
				l-1.677-36.03l-0.919-36.06c-1.861-96.174,2.231-192.551,13.135-288.287c1.201-11.986,2.773-23.928,4.405-35.864l4.732-35.676
				l4.617-35.2l3.427-35.316c3.953-47.124,5.363-94.426,3.612-141.582c-3.568-94.255-19.619-188.044-50.374-276.878
				c-7.874-22.121-16.292-44.067-26.081-65.391c-9.623-21.388-19.961-42.471-31.574-62.817
				c-11.526-20.389-24.025-40.215-37.601-59.196c-6.792-9.483-13.844-18.766-21.185-27.726c-3.646-4.507-7.412-8.888-11.221-13.161
				c-1.913-2.129-3.827-4.254-5.768-6.258c-0.971-1.041-1.931-2.031-2.873-2.952l-1.397-1.391l-1.037-0.98l-0.945-0.893
				c-5.682-5.365-5.938-14.321-0.573-20.004C846.771,766.406,855.507,766.067,861.201,771.121z" />
			</g>
			<g>

				<linearGradient id="SVGID_00000109727797215584707980000018290632676446951085_" gradientUnits="userSpaceOnUse"
					x1="745.2819" y1="2832.3284" x2="1669.2296" y2="2832.3284"
					gradientTransform="matrix(0.9679 -0.2512 0.2512 0.9679 -807.0503 263.8451)">
					<stop offset="0" style="stop-color:#A737D5" />
					<stop offset="1" style="stop-color:#0364db" />
				</linearGradient>
				<path style="fill:url(#SVGID_00000109727797215584707980000018290632676446951085_);" d="M482.584,2258.765
				c-7.917-7.006-2.017-20.083,8.494-18.946c106.731,11.545,389.367,74.007,583.553,409.259
				c243.636,420.624,472.116,401.624,594.467,511.055c0,0-167.589,63.151-361.48-14.381
				C831.569,2955.393,623.354,2383.333,482.584,2258.765z" />
				<path style="opacity:0.47;fill:#FFFFFF;" d="M624.026,2338.567c20.496,10.493,39.352,23.067,57.711,36.49l6.917,4.979l6.742,5.2
				l13.492,10.407c8.791,7.18,17.546,14.418,26.245,21.723c34.384,29.708,66.386,62.037,96.955,95.598
				c30.933,33.3,58.833,69.176,86.552,105.125l19.949,27.583l9.977,13.797l4.989,6.9l4.749,7.059l37.913,56.362
				c49.237,74.749,106.221,144.367,169.116,208.153c31.273,32.06,63.976,62.762,98.084,91.802
				c8.45,7.348,17.139,14.409,25.698,21.632c8.663,7.087,17.434,14.044,26.205,20.993c8.882,6.793,17.712,13.673,26.744,20.234
				c8.906,6.677,18.122,13.203,27.091,19.292l0.257,0.174c4.821,3.273,6.077,9.834,2.804,14.656
				c-3.227,4.755-9.663,6.035-14.464,2.931c-19.515-12.636-37.768-25.913-55.972-39.708c-9.001-6.966-17.998-13.938-26.885-21.042
				c-8.777-7.233-17.69-14.314-26.357-21.679c-34.768-29.354-67.951-60.543-99.782-93.042
				c-16.137-16.042-31.351-32.976-46.655-49.808c-7.564-8.497-14.787-17.298-22.195-25.933l-11.045-13.009
				c-3.697-4.323-7.091-8.902-10.65-13.34l-21.117-26.824c-6.951-9.008-13.434-18.378-20.172-27.548l-10.014-13.827
				c-1.649-2.319-3.382-4.577-4.961-6.944l-4.707-7.126l-18.822-28.499c-6.356-9.529-12.34-18.929-18.436-28.371l-18.242-28.315
				l-4.562-7.08l-4.797-6.915l-9.596-13.833l-19.195-27.676l-20.107-27.002c-6.746-8.969-13.285-18.108-20.437-26.754
				l-21.051-26.273c-3.447-4.435-7.107-8.684-10.747-12.952l-10.905-12.82c-29.183-34.082-59.842-67.005-92.893-97.383
				c-8.285-7.556-16.635-15.055-25.03-22.507l-12.892-10.814l-6.45-5.411l-6.618-5.188c-4.435-3.428-8.792-6.977-13.296-10.313
				l-13.587-9.912c-9.191-6.324-18.488-12.835-28.089-18.184l-0.126-0.07c-1.365-0.761-1.855-2.483-1.094-3.848
				C621.009,2338.374,622.677,2337.878,624.026,2338.567z" />
			</g>
			<g>

				<linearGradient id="SVGID_00000083089971764383958130000014970060222587595427_" gradientUnits="userSpaceOnUse"
					x1="3511.6404" y1="848.1089" x2="1421.2161" y2="3268.001">
					<stop offset="0" style="stop-color:#0364db" />
					<stop offset="1" style="stop-color:#7A1DBC" />
				</linearGradient>
				<path style="fill:url(#SVGID_00000083089971764383958130000014970060222587595427_);" d="M1517.714,3150.44
				c0,0,434.278-146.849,614.153-677.935c174.833-516.203,265.806-1260.514,942.704-1360.719
				c21.404-3.169,37.147,19.242,25.615,37.55c-68.181,108.246-233.769,392.884-309.497,713.893
				C2694.023,2272.996,2256.323,3209.18,1517.714,3150.44z" />
				<path style="opacity:0.47;fill:#FFFFFF;" d="M2922.567,1302.479l-1.186,0.578l-1.617,0.843c-1.085,0.553-2.206,1.163-3.351,1.813
				c-2.267,1.234-4.542,2.581-6.818,3.934c-4.541,2.721-9.074,5.55-13.536,8.523c-8.953,5.885-17.74,12.133-26.351,18.631
				c-17.22,13.01-33.724,27.064-49.523,41.883c-15.864,14.758-30.806,30.516-45.201,46.742
				c-14.524,16.124-28.009,33.175-41.063,50.531c-51.656,69.935-91.699,148.301-120.851,230.522
				c-14.555,41.145-26.36,83.291-35.87,125.98l-6.717,32.121l-5.635,32.348l-5.665,32.798c-1.853,10.987-3.759,21.964-6.005,32.875
				c-16.785,87.521-39.76,173.728-67.935,258.112l-10.76,31.581l-11.42,31.343c-3.725,10.477-7.79,20.828-11.85,31.178
				c-4.11,10.331-7.931,20.773-12.278,31.008c-16.687,41.222-35.031,81.744-54.24,121.825
				c-19.506,39.95-40.504,79.148-62.52,117.744c-22.304,38.439-45.951,76.078-70.826,112.883
				c-25.119,36.644-51.683,72.278-79.603,106.805c-27.956,34.512-57.931,67.35-89.195,98.832
				c-31.229,31.527-64.443,61.074-99.292,88.467c-34.842,27.395-71.392,52.607-109.667,74.852
				c37.706-23.203,73.537-49.282,107.567-77.452c34.036-28.167,66.342-58.4,96.608-90.536
				c30.326-32.067,59.155-65.522,86.334-100.268c27.061-34.837,52.737-70.725,76.954-107.578
				c23.974-37.012,46.702-74.81,68.076-113.364c21.102-38.704,41.111-77.988,59.732-117.927
				c18.454-40.011,36.039-80.425,51.966-121.501c4.156-10.196,7.788-20.601,11.708-30.889c3.87-10.309,7.745-20.614,11.279-31.045
				l10.849-31.195l10.189-31.415c26.651-83.918,48.102-169.48,63.387-256.065c2.059-10.797,3.779-21.649,5.445-32.509
				c1.746-10.913,3.316-21.571,5.209-32.692l5.5-33.095l6.611-32.912c9.388-43.77,21.151-87.095,35.785-129.518
				c14.664-42.396,32.038-83.966,52.817-123.866c20.763-39.899,44.607-78.244,71.417-114.466
				c26.928-36.117,56.866-70.128,90.175-100.672c16.629-15.292,34.007-29.804,52.234-43.294c4.507-3.431,9.227-6.612,13.831-9.925
				c4.741-3.153,9.408-6.384,14.271-9.39c4.803-3.077,9.709-6.026,14.709-8.904c2.506-1.429,5.017-2.856,7.633-4.225
				c1.273-0.693,2.594-1.382,3.985-2.064l2.083-1.035l2.58-1.165c6.587-2.974,14.339-0.044,17.313,6.543
				c2.917,6.462,0.155,14.044-6.17,17.137L2922.567,1302.479z" />
			</g>
			<g>

				<linearGradient id="SVGID_00000052088373384902552790000014614132551894174624_" gradientUnits="userSpaceOnUse"
					x1="-1221.1858" y1="2234.5083" x2="-111.026" y2="2234.5083"
					gradientTransform="matrix(-0.9493 -0.3144 -0.3144 0.9493 2386.98 326.8073)">
					<stop offset="0" style="stop-color:#A737D5" />
					<stop offset="1" style="stop-color:#0364db" />
				</linearGradient>
				<path style="fill:url(#SVGID_00000052088373384902552790000014614132551894174624_);" d="M3059.694,2172.67
				c10.047-7.775,4.006-23.921-8.687-23.389c-128.89,5.404-472.725,57.952-732.074,444.586
				c-325.391,485.09-555.071,566.328-753.209,565.784c0,0,195.956,88.972,434.573,11.337
				C2586.16,2980.376,2881.052,2310.905,3059.694,2172.67z" />
				<path style="opacity:0.47;fill:#FFFFFF;" d="M2886.431,2263.442c-11.934,5.653-23.597,12.726-35.117,19.581l-17.076,10.812
				c-5.664,3.642-11.169,7.553-16.758,11.313l-8.346,5.697l-8.161,5.979l-16.313,11.948c-10.655,8.272-21.26,16.603-31.792,25.009
				c-42.032,33.812-81.397,70.865-119.084,109.422l-14.09,14.511c-4.702,4.83-9.426,9.635-13.91,14.679l-27.319,29.839
				c-9.259,9.801-17.822,20.245-26.62,30.464l-26.245,30.787l-25.204,31.667l-12.6,15.828l-6.299,7.912l-6.03,8.128l-24.111,32.508
				c-8.056,10.839-15.975,21.638-24.349,32.561l-24.822,32.684l-6.208,8.172c-2.081,2.715-4.337,5.286-6.498,7.935l-13.101,15.787
				c-8.804,10.463-17.318,21.186-26.365,31.438l-27.441,30.495c-4.619,5.039-9.05,10.259-13.825,15.152l-14.272,14.726
				c-9.565,9.767-18.922,19.749-28.664,29.339c-19.682,18.975-39.263,38.076-59.881,56.035
				c-40.738,36.452-82.991,71.226-127.001,103.672c-10.975,8.147-22.221,15.932-33.317,23.912
				c-11.218,7.816-22.558,15.465-33.901,23.103c-22.917,15.104-45.854,29.579-70.253,43.189c-6.115,3.41-13.838,1.218-17.249-4.898
				c-3.364-6.03-1.278-13.624,4.644-17.103l0.335-0.197c11.236-6.592,22.802-13.688,34.009-20.991
				c11.348-7.152,22.48-14.702,33.667-22.148c11.066-7.638,22.132-15.286,33.081-23.1c10.834-7.982,21.811-15.762,32.524-23.907
				c43.193-32.121,84.834-66.352,124.867-102.32c80.458-71.509,154.289-150.481,219.238-236.216l49.917-64.584l6.252-8.089
				l6.527-7.878l13.053-15.755l26.102-31.497c36.079-40.915,72.37-81.725,112.093-119.208
				c39.307-37.826,80.236-74.059,123.813-106.962c11.009-8.073,22.079-16.059,33.187-23.971l17-11.413l8.496-5.703l8.688-5.424
				c23.076-14.642,46.679-28.229,72.085-39.191c1.724-0.744,3.724,0.05,4.467,1.775c0.727,1.685-0.016,3.635-1.66,4.415
				L2886.431,2263.442z" />
			</g>
			<g>

				<linearGradient id="SVGID_00000016043669880008276080000013687512812423501247_" gradientUnits="userSpaceOnUse"
					x1="1490.7024" y1="2799.2903" x2="1816.1428" y2="3328.7561">
					<stop offset="0" style="stop-color:#53D8FF" />
					<stop offset="1" style="stop-color:#3840F7" />
				</linearGradient>
				<path style="fill:url(#SVGID_00000016043669880008276080000013687512812423501247_);" d="M1849.051,3085.57
				c-1.024,70.314-91.276,145.245-195.552,145.245c-104.276,0-183.117-54.956-188.809-125.047
				c-13.575-167.188,84.532-165.444,188.809-165.444C1757.776,2940.324,1851.583,2911.788,1849.051,3085.57z" />

				<linearGradient id="SVGID_00000063605521781750978270000010128100012996029070_" gradientUnits="userSpaceOnUse"
					x1="1538.2416" y1="2802.5181" x2="1841.1534" y2="3295.3315">
					<stop offset="0" style="stop-color:#53D8FF" />
					<stop offset="1" style="stop-color:#3840F7" />
				</linearGradient>
				<path style="fill:url(#SVGID_00000063605521781750978270000010128100012996029070_);" d="M1925.698,2982.938
				c3.067,38.038-112.42,78.385-257.948,90.118c-145.527,11.733-265.987-9.59-269.054-47.628
				c-3.067-38.037,112.421-78.385,257.948-90.118C1802.171,2923.577,1922.631,2944.9,1925.698,2982.938z" />

				<linearGradient id="SVGID_00000161624530745572622380000015627372675092203947_" gradientUnits="userSpaceOnUse"
					x1="1568.0756" y1="2784.1802" x2="1870.9874" y2="3276.9937">
					<stop offset="0" style="stop-color:#53D8FF" />
					<stop offset="1" style="stop-color:#3840F7" />
				</linearGradient>
				<path style="fill:url(#SVGID_00000161624530745572622380000015627372675092203947_);" d="M1925.698,2916.063
				c3.067,38.038-112.42,78.385-257.948,90.118c-145.527,11.734-265.987-9.59-269.054-47.627
				c-3.067-38.038,112.421-78.385,257.948-90.118C1802.171,2856.701,1922.631,2878.025,1925.698,2916.063z" />

				<linearGradient id="SVGID_00000124159725908811846140000006777337726635516574_" gradientUnits="userSpaceOnUse"
					x1="1597.9097" y1="2765.8425" x2="1900.8215" y2="3258.6563">
					<stop offset="0" style="stop-color:#53D8FF" />
					<stop offset="1" style="stop-color:#3840F7" />
				</linearGradient>
				<path style="fill:url(#SVGID_00000124159725908811846140000006777337726635516574_);" d="M1925.698,2849.187
				c3.067,38.038-112.42,78.385-257.948,90.118c-145.527,11.733-265.987-9.59-269.054-47.628
				c-3.067-38.037,112.421-78.385,257.948-90.118C1802.171,2789.826,1922.631,2811.15,1925.698,2849.187z" />

				<linearGradient id="SVGID_00000072978910034436851910000009586798910479179650_" gradientUnits="userSpaceOnUse"
					x1="1627.7437" y1="2747.5049" x2="1930.6555" y2="3240.3184">
					<stop offset="0" style="stop-color:#53D8FF" />
					<stop offset="1" style="stop-color:#3840F7" />
				</linearGradient>
				<path style="fill:url(#SVGID_00000072978910034436851910000009586798910479179650_);" d="M1925.698,2782.312
				c3.067,38.038-112.42,78.385-257.948,90.118c-145.527,11.734-265.987-9.59-269.054-47.627
				c-3.067-38.038,112.421-78.385,257.948-90.118C1802.171,2722.951,1922.631,2744.275,1925.698,2782.312z" />
				<g>

					<linearGradient id="SVGID_00000040540544749899288030000008026124656355957658_" gradientUnits="userSpaceOnUse"
						x1="1636.4136" y1="3113.2322" x2="1408.0656" y2="3945.0735">
						<stop offset="0" style="stop-color:#53D8FF" />
						<stop offset="1" style="stop-color:#3840F7" />
					</linearGradient>
					<path style="fill:url(#SVGID_00000040540544749899288030000008026124656355957658_);" d="M1589.305,3079.804
					c-43.22,0-82.767-3.179-115.442-9.438c-1.896-0.362-3.138-2.193-2.775-4.089c0.362-1.894,2.184-3.138,4.089-2.775
					c51.128,9.789,119.418,11.946,192.29,6.071c59.629-4.809,115.394-14.426,161.266-27.815c1.857-0.541,3.794,0.522,4.335,2.376
					c0.541,1.853-0.522,3.793-2.375,4.334c-46.321,13.518-102.569,23.225-162.662,28.07
					C1640.963,3078.722,1614.51,3079.804,1589.305,3079.804z" />

					<linearGradient id="SVGID_00000106870161630552161530000009193934567645989542_" gradientUnits="userSpaceOnUse"
						x1="1627.9633" y1="3110.9111" x2="1399.616" y2="3942.7498">
						<stop offset="0" style="stop-color:#53D8FF" />
						<stop offset="1" style="stop-color:#3840F7" />
					</linearGradient>
					<path style="fill:url(#SVGID_00000106870161630552161530000009193934567645989542_);" d="M1590.031,3012.868
					c-56.154,0-106.337-5.282-141.734-15.361c-1.857-0.529-2.932-2.462-2.405-4.319c0.531-1.857,2.456-2.93,4.319-2.405
					c50.439,14.363,131.655,18.815,217.256,11.916c84.675-6.828,163.645-24.01,211.245-45.964c1.754-0.805,3.83-0.042,4.639,1.71
					c0.807,1.753,0.043,3.83-1.71,4.638c-48.307,22.278-128.163,39.692-213.611,46.582
					C1641.365,3011.815,1615.101,3012.868,1590.031,3012.868z" />

					<linearGradient id="SVGID_00000083801319741693952960000008690463017724868272_" gradientUnits="userSpaceOnUse"
						x1="1606.7344" y1="3105.084" x2="1378.3867" y2="3936.9238">
						<stop offset="0" style="stop-color:#53D8FF" />
						<stop offset="1" style="stop-color:#3840F7" />
					</linearGradient>
					<path style="fill:url(#SVGID_00000083801319741693952960000008690463017724868272_);" d="M1589.312,2946.042
					c-60.631,0-113.689-6.204-149.4-17.979c-1.835-0.604-2.829-2.58-2.226-4.413c0.604-1.835,2.574-2.831,4.413-2.226
					c49.696,16.387,133.946,21.766,225.368,14.399c84.67-6.826,163.64-24.01,211.245-45.966c1.754-0.804,3.83-0.041,4.639,1.71
					c0.807,1.753,0.043,3.83-1.71,4.639c-48.312,22.28-128.168,39.696-213.611,46.583
					C1640.954,2944.974,1614.479,2946.042,1589.312,2946.042z" />

					<linearGradient id="SVGID_00000137118849463523817680000011993676039647639429_" gradientUnits="userSpaceOnUse"
						x1="1601.0486" y1="3103.5227" x2="1372.7014" y2="3935.3606">
						<stop offset="0" style="stop-color:#53D8FF" />
						<stop offset="1" style="stop-color:#3840F7" />
					</linearGradient>
					<path style="fill:url(#SVGID_00000137118849463523817680000011993676039647639429_);" d="M1589.78,2879.135
					c-48.095,0-91.839-3.887-125.847-11.444c-1.884-0.418-3.073-2.285-2.653-4.169c0.418-1.886,2.292-3.075,4.169-2.654
					c51.138,11.363,124.774,14.307,202.02,8.079c83.916-6.767,162.482-23.763,210.167-45.469c1.755-0.804,3.828-0.024,4.628,1.734
					c0.801,1.756,0.024,3.828-1.734,4.628c-48.38,22.024-127.82,39.247-212.498,46.073
					C1641.275,2878.071,1614.93,2879.135,1589.78,2879.135z" />
				</g>

				<linearGradient id="SVGID_00000125577608575239356080000012269414617426861733_" gradientUnits="userSpaceOnUse"
					x1="1682.6244" y1="1163.0061" x2="1602.0879" y2="3538.814">
					<stop offset="0" style="stop-color:#FDF53F" />
					<stop offset="1" style="stop-color:#D93C65" />
				</linearGradient>
				<path style="fill:url(#SVGID_00000125577608575239356080000012269414617426861733_);" d="M1301.02,2511.612
				c-17.675-62.603-47.697-121.108-88.13-172.066c-86.635-109.187-227.968-331.24-245.364-634.302
				c-25.304-440.819,365.651-661.517,722.404-631.556c356.753,29.961,708.778,295.591,670.24,705.686
				c-23.712,252.332-164.946,443.731-270.102,553.648c-66.775,69.799-114.405,155.289-140.189,248.38
				c-31.558,113.939-106.658,255.93-285.164,264.586C1433.735,2857.188,1337.802,2641.888,1301.02,2511.612z" />
				<path style="fill:#FFFFFF;" d="M1723.719,2762.586l124.827-624.903c2.579-12.91,10.834-21.58,18.437-19.365
				c7.604,2.215,11.677,14.477,9.098,27.387c-0.068,0.344-0.161,0.769-0.237,1.107l-142.189,619.096
				c-1.069,4.656-4.141,7.596-6.861,6.567C1724.157,2771.478,1722.823,2767.094,1723.719,2762.586z" />
				<path style="fill:#FFFFFF;" d="M1594.143,2767.548l-124.827-624.902c-2.579-12.91-10.834-21.58-18.437-19.365
				c-7.604,2.215-11.677,14.477-9.098,27.387c0.068,0.344,0.161,0.769,0.237,1.107l142.189,619.096
				c1.07,4.656,4.141,7.596,6.861,6.567C1593.705,2776.44,1595.039,2772.056,1594.143,2767.548z" />
				<path style="fill:#FFFFFF;" d="M1847.651,2084.03c-3.17-3.924-10.506-5.39-16.386-3.275l-69.506,24.997l-24.126-52.912
				c-1.278-2.761-4.235-5.208-8.453-6.546c-7.995-2.536-17.558-0.268-21.358,5.067l-0.122,0.171l-57.162,80.22l-53.043-114.197
				l-0.088-0.189c-1.298-2.787-4.037-5.291-8.029-6.969c-8.895-3.737-20.645-1.956-26.245,3.979l-79.913,84.674
				c-3.25,3.47-2.132,8.12,2.816,10.686c5.281,2.739,12.89,2.102,16.993-1.422l70.362-60.411l63.349,108.634l0.049,0.083
				c1.016,1.739,2.926,3.255,5.58,4.211c5.944,2.143,13.366,0.664,16.578-3.302l61.135-75.509l23.009,38.191l0.203,0.339
				c0.167,0.274,0.357,0.545,0.572,0.811c3.167,3.92,10.497,5.386,16.372,3.272l82.504-29.672
				C1848.623,2092.848,1850.821,2087.953,1847.651,2084.03z" />
				<path style="fill:#FFFFFF;" d="M1405.429,1185.679c-4.494,11.403-1.707,22.464,9.864,33.11c2.373,2.184,5.719,3.008,8.852,2.242
				c161.516-39.476,324.641-35.996,483.403,16.468c3.875,1.28,8.113-0.013,10.674-3.19c12.785-15.859,10.767-32.456-2.833-49.629
				c-1.205-1.521-2.894-2.621-4.749-3.189c-159.439-48.747-318.863-52.135-478.28-17.939
				C1420.349,1166.128,1409.933,1174.25,1405.429,1185.679z" />

				<linearGradient id="SVGID_00000133530213643905623740000012296266825179385012_" gradientUnits="userSpaceOnUse"
					x1="1778.4817" y1="464.7727" x2="1630.802" y2="1431.3978">
					<stop offset="0" style="stop-color:#FDF53F" />
					<stop offset="1" style="stop-color:#75b1fa" />
				</linearGradient>
				<path style="fill:url(#SVGID_00000133530213643905623740000012296266825179385012_);" d="M1414.313,1187.76
				c-4.347,10.271-1.651,20.233,9.541,29.823c2.296,1.967,5.532,2.709,8.562,2.02c156.229-35.556,314.014-32.422,467.579,14.833
				c3.748,1.153,7.847-0.012,10.325-2.874c12.366-14.285,10.415-29.233-2.741-44.702c-1.165-1.37-2.799-2.361-4.594-2.872
				c-154.22-43.907-308.425-46.959-462.624-16.158C1428.744,1170.15,1418.669,1177.465,1414.313,1187.76z" />
			</g>
			<g>
				<g>

					<linearGradient id="SVGID_00000158722851645781544050000007811395899903550127_" gradientUnits="userSpaceOnUse"
						x1="1836.5461" y1="2193.9229" x2="2629.4817" y2="3688.6521">
						<stop offset="0" style="stop-color:#53D8FF" />
						<stop offset="1" style="stop-color:#3840F7" />
					</linearGradient>
					<path style="fill:url(#SVGID_00000158722851645781544050000007811395899903550127_);" d="M2074.513,3228.679
					c5.328,0,9.646-4.319,9.646-9.647V2065.975c0-5.328-4.319-9.646-9.646-9.646c-5.329,0-9.647,4.318-9.647,9.646v1153.057
					C2064.866,3224.36,2069.184,3228.679,2074.513,3228.679z" />

					<linearGradient id="SVGID_00000125563248375056289890000001588171816189848204_" gradientUnits="userSpaceOnUse"
						x1="2040.5532" y1="2085.7002" x2="2833.4885" y2="3580.4294">
						<stop offset="0" style="stop-color:#53D8FF" />
						<stop offset="1" style="stop-color:#3840F7" />
					</linearGradient>
					<path style="fill:url(#SVGID_00000125563248375056289890000001588171816189848204_);" d="M2335.93,3228.679
					c5.328,0,9.647-4.319,9.647-9.647V2065.975c0-5.328-4.319-9.646-9.647-9.646s-9.646,4.318-9.646,9.646v1153.057
					C2326.284,3224.36,2330.602,3228.679,2335.93,3228.679z" />

					<linearGradient id="SVGID_00000114769343968271426950000004278475162035694746_" gradientUnits="userSpaceOnUse"
						x1="2347.7729" y1="1922.7239" x2="3140.7039" y2="3417.4446">
						<stop offset="0" style="stop-color:#53D8FF" />
						<stop offset="1" style="stop-color:#3840F7" />
					</linearGradient>
					<path style="fill:url(#SVGID_00000114769343968271426950000004278475162035694746_);" d="M2978.201,3235.992
					c1.26,0,2.538-0.249,3.77-0.772c4.902-2.084,7.188-7.748,5.104-12.654L2493.774,2062.2c-2.084-4.903-7.756-7.183-12.652-5.103
					c-4.902,2.084-7.188,7.748-5.104,12.653l493.301,1160.368C2970.879,3233.788,2974.449,3235.992,2978.201,3235.992z" />

					<linearGradient id="SVGID_00000109022605065512532070000007726963479002948483_" gradientUnits="userSpaceOnUse"
						x1="2109.9841" y1="2048.8679" x2="2902.9148" y2="3543.5886">
						<stop offset="0" style="stop-color:#53D8FF" />
						<stop offset="1" style="stop-color:#3840F7" />
					</linearGradient>
					<path style="fill:url(#SVGID_00000109022605065512532070000007726963479002948483_);" d="M2673.494,3235.992
					c1.26,0,2.538-0.249,3.77-0.772c4.902-2.084,7.188-7.748,5.104-12.654L2189.067,2062.2c-2.086-4.903-7.755-7.183-12.652-5.103
					c-4.902,2.084-7.188,7.748-5.104,12.653l493.301,1160.368C2666.172,3233.788,2669.742,3235.992,2673.494,3235.992z" />

					<linearGradient id="SVGID_00000011745484626353118110000000441957386375120289_" gradientUnits="userSpaceOnUse"
						x1="2241.0869" y1="1979.319" x2="3034.0198" y2="3474.0432">
						<stop offset="0" style="stop-color:#53D8FF" />
						<stop offset="1" style="stop-color:#3840F7" />
					</linearGradient>
					<path style="fill:url(#SVGID_00000011745484626353118110000000441957386375120289_);" d="M2059.536,2076.587h451.875
					c7.509,0,13.597-6.087,13.597-13.596l0,0c0-7.509-6.087-13.596-13.597-13.596h-451.875c-7.509,0-13.596,6.087-13.596,13.596l0,0
					C2045.939,2070.5,2052.027,2076.587,2059.536,2076.587z" />

					<linearGradient id="SVGID_00000044155937652776752690000000841156169139644605_" gradientUnits="userSpaceOnUse"
						x1="2261.6409" y1="1968.4152" x2="3054.5754" y2="3463.1428">
						<stop offset="0" style="stop-color:#53D8FF" />
						<stop offset="1" style="stop-color:#3840F7" />
					</linearGradient>
					<path style="fill:url(#SVGID_00000044155937652776752690000000841156169139644605_);" d="M2254.715,2253.051h305.609
					c5.328,0,9.646-4.318,9.646-9.647c0-5.328-4.318-9.647-9.646-9.647h-305.609c-5.328,0-9.647,4.319-9.647,9.647
					C2245.068,2248.732,2249.386,2253.051,2254.715,2253.051z" />

					<linearGradient id="SVGID_00000052826209428242328960000005520723208201069236_" gradientUnits="userSpaceOnUse"
						x1="2243.9678" y1="1977.7914" x2="3036.9036" y2="3472.521">
						<stop offset="0" style="stop-color:#53D8FF" />
						<stop offset="1" style="stop-color:#3840F7" />
					</linearGradient>

					<rect x="2348.486" y="2453.213" style="fill:url(#SVGID_00000052826209428242328960000005520723208201069236_);"
						width="305.609" height="19.292" />

					<linearGradient id="SVGID_00000019671545441626035610000014072779871176884108_" gradientUnits="userSpaceOnUse"
						x1="2223.9597" y1="1988.4054" x2="3016.8904" y2="3483.1255">
						<stop offset="0" style="stop-color:#53D8FF" />
						<stop offset="1" style="stop-color:#3840F7" />
					</linearGradient>

					<rect x="2439.265" y="2672.668" style="fill:url(#SVGID_00000019671545441626035610000014072779871176884108_);"
						width="305.609" height="19.293" />

					<linearGradient id="SVGID_00000058557959317146278320000005058504142000703158_" gradientUnits="userSpaceOnUse"
						x1="2207.4004" y1="1997.1892" x2="3000.3352" y2="3491.9172">
						<stop offset="0" style="stop-color:#53D8FF" />
						<stop offset="1" style="stop-color:#3840F7" />
					</linearGradient>
					<path style="fill:url(#SVGID_00000058557959317146278320000005058504142000703158_);" d="M2534.464,2911.417h305.61
					c5.328,0,9.647-4.318,9.647-9.646c0-5.328-4.319-9.647-9.647-9.647h-305.61c-5.328,0-9.647,4.318-9.647,9.647
					C2524.818,2907.098,2529.137,2911.417,2534.464,2911.417z" />

					<linearGradient id="SVGID_00000047776689591394756560000014433175045675913606_" gradientUnits="userSpaceOnUse"
						x1="2188.374" y1="2007.282" x2="2981.3064" y2="3502.0054">
						<stop offset="0" style="stop-color:#53D8FF" />
						<stop offset="1" style="stop-color:#3840F7" />
					</linearGradient>
					<path style="fill:url(#SVGID_00000047776689591394756560000014433175045675913606_);" d="M2626.505,3130.875h305.609
					c5.328,0,9.647-4.318,9.647-9.646c0-5.328-4.318-9.646-9.647-9.646h-305.609c-5.329,0-9.647,4.318-9.647,9.646
					C2616.858,3126.557,2621.176,3130.875,2626.505,3130.875z" />
				</g>
				<g>

					<linearGradient id="SVGID_00000052090927626254888890000013736907098086798516_" gradientUnits="userSpaceOnUse"
						x1="971.1105" y1="2021.2915" x2="1060.8442" y2="2021.2915" gradientTransform="matrix(-1 0 0 1 3396.0823 0)">
						<stop offset="0" style="stop-color:#2B3582" />
						<stop offset="1" style="stop-color:#150E42" />
					</linearGradient>
					<path style="fill:url(#SVGID_00000052090927626254888890000013736907098086798516_);" d="M2412.48,1989.672
					c0,0,9.971,15.718,12.48,59.723c0.234,4.101-3.014,7.594-7.121,7.594h-77.985c-3.138,0-5.377-3.077-4.373-6.049
					c4.57-13.525,18.387-46.501,49.218-65.344L2412.48,1989.672z" />

					<linearGradient id="SVGID_00000081641313537311266030000006200049064207930284_" gradientUnits="userSpaceOnUse"
						x1="980.213" y1="1979.5931" x2="1016.6061" y2="1979.5931" gradientTransform="matrix(-1 0 0 1 3396.0823 0)">
						<stop offset="0" style="stop-color:#F9B776" />
						<stop offset="1" style="stop-color:#F47960" />
					</linearGradient>
					<path style="fill:url(#SVGID_00000081641313537311266030000006200049064207930284_);" d="M2415.869,1959.853l-4.411,36.986
					c-0.38,3.191-2.881,5.745-6.074,6.113c-4.265,0.492-10.465,0.837-16.49-0.156c-5.477-0.903-9.418-5.781-9.418-11.332v-35.709
					L2415.869,1959.853z" />

					<linearGradient id="SVGID_00000089560646413617393120000004180001522303249568_" gradientUnits="userSpaceOnUse"
						x1="1161.9397" y1="2019.8567" x2="1302.7351" y2="2019.8567"
						gradientTransform="matrix(-1 0 0 1 3396.0823 0)">
						<stop offset="0" style="stop-color:#2B3582" />
						<stop offset="1" style="stop-color:#150E42" />
					</linearGradient>
					<path style="fill:url(#SVGID_00000089560646413617393120000004180001522303249568_);" d="M2219.531,1985.595
					c0,0,14.927,23.201,14.607,55.048c-0.075,7.501-6.356,13.476-13.857,13.476h-121.12c-5.671,0-7.974-7.288-3.333-10.547
					c22.919-16.094,67.967-46.16,100.549-57.977H2219.531z" />

					<linearGradient id="SVGID_00000021804213511982449560000000899388004330396042_" gradientUnits="userSpaceOnUse"
						x1="1164.0786" y1="1963.4333" x2="1200.2708" y2="1963.4333"
						gradientTransform="matrix(-1 0 0 1 3396.0823 0)">
						<stop offset="0" style="stop-color:#F9B776" />
						<stop offset="1" style="stop-color:#F47960" />
					</linearGradient>
					<path style="fill:url(#SVGID_00000021804213511982449560000000899388004330396042_);" d="M2232.004,1945.652l-9.408,45.678
					c-1.052,5.109-6.05,8.544-11.142,7.408c-3.095-0.691-6.746-2.014-10.648-4.454c-3.708-2.318-5.587-6.729-4.829-11.036
					l9.731-55.338L2232.004,1945.652z" />

					<linearGradient id="SVGID_00000062160772554236572160000016716693550777647031_" gradientUnits="userSpaceOnUse"
						x1="957.6005" y1="1642.397" x2="1204.3363" y2="1642.397" gradientTransform="matrix(-1 0 0 1 3396.0823 0)">
						<stop offset="0" style="stop-color:#2B3582" />
						<stop offset="1" style="stop-color:#150E42" />
					</linearGradient>
					<path style="fill:url(#SVGID_00000062160772554236572160000016716693550777647031_);" d="M2398.588,1310.571
					c0,0,32.713,28.84,38.869,63.539c6.156,34.698-17.443,598.665-17.443,598.665s-32.711,5.442-49.574-4.776
					c0,0-20-366.01-35.202-450.586c0,0-79.725,379.138-101.815,447.643c0,0-31.514,3.834-41.677-2.162
					c0,0,20.883-491.469,47.125-578.845L2398.588,1310.571z" />
					<path style="fill:#666694;"
						d="M2336.19,1505.191c-0.269,0-0.544-0.034-0.814-0.105c-1.724-0.449-2.758-2.212-2.308-3.934
					l13.895-53.302c0.204-0.786,0.697-1.464,1.38-1.903l30.021-19.259c1.491-0.964,3.493-0.529,4.457,0.975
					c0.962,1.499,0.525,3.495-0.975,4.457l-28.958,18.578l-13.578,52.08C2338.931,1504.23,2337.623,1505.191,2336.19,1505.191z" />

					<linearGradient id="SVGID_00000005958867019666100130000000597212941699797400_" gradientUnits="userSpaceOnUse"
						x1="2036.4316" y1="864.882" x2="2145.6069" y2="1122.2241">
						<stop offset="0" style="stop-color:#53D8FF" />
						<stop offset="1" style="stop-color:#3840F7" />
					</linearGradient>
					<path style="fill:url(#SVGID_00000005958867019666100130000000597212941699797400_);" d="M2075.769,984.701
					c137.709-11.432,173.701,17.065,173.701,17.065l-66.178,104.477c0,0-135.313-2.673-232.27-77.403
					c18.146-19.543,30.748-41.139,38.831-57.955C2014.855,981.275,2043.647,987.367,2075.769,984.701z" />

					<linearGradient id="SVGID_00000155141012773903049170000010935584350738720657_" gradientUnits="userSpaceOnUse"
						x1="1406.2292" y1="903.677" x2="1540.7375" y2="903.677" gradientTransform="matrix(-1 0 0 1 3396.0823 0)">
						<stop offset="0" style="stop-color:#F9B776" />
						<stop offset="1" style="stop-color:#F47960" />
					</linearGradient>
					<path style="fill:url(#SVGID_00000155141012773903049170000010935584350738720657_);" d="M1860.118,782.563
					c0.185-4.413,6.166-5.614,8.04-1.614l17.572,37.496c3.395,7.245,4.483,15.358,3.118,23.241l-6.164,21.824
					c-1.844,10.643,0.936,21.548,7.683,29.984c16.146,20.185,50.532,57.05,99.485,77.391c-8.083,16.816-20.685,38.412-38.831,57.955
					c-35.575-27.419-65.995-64.528-82.661-114.781c-7.985-2.453-13.321-9.971-13.004-18.318L1860.118,782.563z" />

					<linearGradient id="SVGID_00000136391087918617840390000004939976030783635903_" gradientUnits="userSpaceOnUse"
						x1="1282.4764" y1="867.5297" x2="1208.847" y2="1564.8467" gradientTransform="matrix(-1 0 0 1 3396.0823 0)">
						<stop offset="0" style="stop-color:#53D8FF" />
						<stop offset="1" style="stop-color:#3840F7" />
					</linearGradient>
					<path style="fill:url(#SVGID_00000136391087918617840390000004939976030783635903_);" d="M2030.44,1045.273
					c48.479-52.238,140.821-75.839,194.283-85.534c23.422-4.247,46.51,8.786,54.809,31.096
					c24.059,64.675,89.494,232.937,102.177,261.856c10.405,23.725,21.27,46.896,28.173,61.383
					c4.125,8.654,0.521,19.011-8.116,23.173c-44.981,21.681-125.919,46.211-158.732,55.78c-7.218,2.105-14.405-3.314-14.405-10.832
					c0-6.376-1.733-12.634-5.014-18.1l-124.271-207.089c-77.457,85.884-145.289,93.737-197.398,74.939
					c8.762-27.079,14.495-54.207,17.245-81.387C1996.174,1137.371,2030.44,1045.273,2030.44,1045.273z" />

					<linearGradient id="SVGID_00000106868622457076030050000004029179785074818738_" gradientUnits="userSpaceOnUse"
						x1="1383.8337" y1="714.483" x2="1102.3523" y2="1231.6774" gradientTransform="matrix(-1 0 0 1 3396.0823 0)">
						<stop offset="0" style="stop-color:#F9B776" />
						<stop offset="1" style="stop-color:#F47960" />
					</linearGradient>
					<path style="fill:url(#SVGID_00000106868622457076030050000004029179785074818738_);" d="M2151.187,863.801l41.295,100.77
					c0,0-47.449,32.842-85.623,29.717l-20.61-90.611L2151.187,863.801z" />
					<g>

						<linearGradient id="SVGID_00000065048499494836832530000006289405354468506814_"
							gradientUnits="userSpaceOnUse" x1="1420.3463" y1="3742.2012" x2="1295.9473" y2="3906.7712"
							gradientTransform="matrix(-0.817 -0.5767 -0.5767 0.817 5419.5103 -1428.4956)">
							<stop offset="0" style="stop-color:#F9B776" />
							<stop offset="1" style="stop-color:#F47960" />
						</linearGradient>
						<path style="fill:url(#SVGID_00000065048499494836832530000006289405354468506814_);"
							d="M2081.429,795.103
						c-0.946,1.34-29.875,105.85-29.875,105.85l60.025,15.25l42.135-94.98C2153.714,821.223,2097.263,772.67,2081.429,795.103z" />

						<linearGradient id="SVGID_00000161615189711503371670000002139494359516426640_"
							gradientUnits="userSpaceOnUse" x1="1325.3411" y1="3781.8994" x2="1473.9382" y2="3781.8994"
							gradientTransform="matrix(-0.817 -0.5767 -0.5767 0.817 5419.5103 -1428.4956)">
							<stop offset="0" style="stop-color:#2B3582" />
							<stop offset="1" style="stop-color:#150E42" />
						</linearGradient>
						<path style="fill:url(#SVGID_00000161615189711503371670000002139494359516426640_);" d="M2131.111,835.653l-18.265,51.736
						c-0.234,0.664-0.548,1.277-0.953,1.852c-2.479,3.521-11.895,15.013-23.064,4.662c-10.135-9.392-19.524-17.813-28.195-19.341
						c-3.894-0.686-7.665,1.69-8.718,5.5c-2.626,9.496-8.147,31.004-10.094,50.422c-0.395,3.94,2.326,7.502,6.217,8.241
						c11.724,2.226,36.58,6.23,57.332,4.767c2.812-0.198,5.287-1.885,6.46-4.448c5.719-12.497,23.24-50.412,29.758-60.223
						c6.117-9.208,21.112-8.95,27.4-8.392c2.062,0.183,4.089-0.481,5.645-1.846c5.501-4.823,15.972-17.135,1.244-31.873
						c-3.083-3.085-3-8.061,0.177-11.048c6.325-5.947,13.09-16.495,2.552-29.577c-10.711-13.297-24.851-11.18-33.514-8.019
						c-3.503,1.278-7.324-0.203-9.228-3.409c-1.084-1.825-2.975-3.206-6.254-2.924c-4.418,0.38-8.133-3.307-8.053-7.741
						c0.153-8.518-2.897-19.28-17.674-23.879c-26.221-8.161-42.573,17.171-44.192,36.073c-1.619,18.903,27.312,26.135,44.325,24.86
						c12.935-0.969,22.539,11.851,26.399,18.053C2131.637,831.062,2131.881,833.471,2131.111,835.653z" />

						<linearGradient id="SVGID_00000116213574409285641250000011881224163459030410_"
							gradientUnits="userSpaceOnUse" x1="1238.1499" y1="3872.5278" x2="1337.9287" y2="3770.1575"
							gradientTransform="matrix(-0.817 -0.5767 -0.5767 0.817 5419.5103 -1428.4956)">
							<stop offset="0" style="stop-color:#F9B776" />
							<stop offset="1" style="stop-color:#F47960" />
						</linearGradient>
						<path style="fill:url(#SVGID_00000116213574409285641250000011881224163459030410_);"
							d="M2134.749,897.592
						c0,0,4.235-32.816,17.886-34.424c13.651-1.608,26.938,9.611,13.366,28.03C2149.12,914.11,2134.749,897.592,2134.749,897.592z" />
					</g>
					<g>

						<linearGradient id="SVGID_00000095314768656385385710000014318258901325882767_"
							gradientUnits="userSpaceOnUse" x1="2432.8057" y1="983.9866" x2="2828.6799" y2="524.4902"
							gradientTransform="matrix(0.9999 0.011 -0.011 0.9999 -1100.3002 282.0813)">
							<stop offset="0" style="stop-color:#FDF53F" />
							<stop offset="1" style="stop-color:#84b9fa" />
						</linearGradient>

						<circle style="fill:url(#SVGID_00000095314768656385385710000014318258901325882767_);" cx="1730.425"
							cy="828.442" r="295.128" />

						<linearGradient id="SVGID_00000171697515685017634610000017824089076623776386_"
							gradientUnits="userSpaceOnUse" x1="3052.3745" y1="189.3499" x2="1881.7639" y2="1957.809"
							gradientTransform="matrix(0.9999 0.011 -0.011 0.9999 -1100.3002 282.0813)">
							<stop offset="0" style="stop-color:#FDF53F" />
							<stop offset="1" style="stop-color:#D93C65" />
						</linearGradient>

						<circle style="fill:url(#SVGID_00000171697515685017634610000017824089076623776386_);" cx="1730.425"
							cy="828.442" r="285.314" />
						<path style="fill:#FFFFFF;" d="M1496.414,712.667c-0.806-0.009-1.624-0.2-2.389-0.598c-2.612-1.355-3.63-4.571-2.275-7.178
						c47.013-90.648,139.6-146.258,241.633-145.134c16.281,0.179,32.571,1.826,48.419,4.898c2.889,0.557,4.777,3.351,4.218,6.242
						c-0.56,2.886-3.333,4.791-6.242,4.212c-15.222-2.945-30.871-4.527-46.512-4.7c-97.989-1.079-186.908,52.329-232.061,139.382
						C1500.249,711.638,1498.362,712.688,1496.414,712.667z" />

						<ellipse transform="matrix(0.7071 -0.7071 0.7071 0.7071 -81.6107 1472.4282)"
							style="opacity:0.78;fill:#FFFFFF;" cx="1736.573" cy="834.727" rx="241.483" ry="241.483" />
						<g>

							<linearGradient id="SVGID_00000147180550287543517830000001078155177272941991_"
								gradientUnits="userSpaceOnUse" x1="1884.3231" y1="-320.7502" x2="1290.7151" y2="675.8194"
								gradientTransform="matrix(0.9622 0.2724 -0.2724 0.9622 70.2339 420.1814)">
								<stop offset="0" style="stop-color:#FDF53F" />
								<stop offset="1" style="stop-color:#D93C65" />
							</linearGradient>
							<path style="fill:url(#SVGID_00000147180550287543517830000001078155177272941991_);" d="M1710.9,1013.977l0.289-26.271
							c-27.375-1.398-54.391-8.16-73.537-16.794c-6.837-3.083-10.254-10.832-8.201-18.045l6.943-24.396
							c2.547-8.95,12.361-13.486,20.902-9.794c18.998,8.211,42.492,14.8,67.901,15.08c26.378,0.29,46.148-8.436,46.35-26.767
							c0.182-16.541-14.91-26.543-51.462-36.782c-52.151-14.882-89.455-38.098-88.948-84.148c0.458-41.58,31.211-72.987,84.059-80.9
							l0.289-26.273c0.093-8.454,7.022-15.231,15.476-15.138l15.435,0.17c8.454,0.093,15.231,7.021,15.138,15.475l-0.26,23.589
							c25.331,1.293,43.729,5.83,58.312,11.136c7.471,2.718,11.481,10.842,9.315,18.492l-6.387,22.563
							c-2.462,8.701-11.842,13.379-20.265,10.088c-13.422-5.246-32.419-10.763-57.189-11.035
							c-31.297-0.345-40.379,12.522-40.507,24.146c-0.158,14.306,18.511,24.348,59.057,37.316
							c57.929,18.076,81.805,42.484,81.327,85.851c-0.438,39.79-30.338,75.232-87.663,83.545l-0.324,29.4
							c-0.093,8.454-7.022,15.232-15.476,15.139l-15.437-0.17C1717.585,1029.359,1710.807,1022.431,1710.9,1013.977z" />
						</g>
					</g>

					<linearGradient id="SVGID_00000090272766401346119110000010395588054084231870_" gradientUnits="userSpaceOnUse"
						x1="1855.5734" y1="977.0701" x2="1855.5734" y2="1450.3129">
						<stop offset="0" style="stop-color:#F9B776" />
						<stop offset="1" style="stop-color:#F47960" />
					</linearGradient>
					<path style="fill:url(#SVGID_00000090272766401346119110000010395588054084231870_);" d="M1791.953,1136.145l13.893-18.523
					c44.976,30.889,82.571,38.21,113.347,32.937c-2.75,27.18-8.483,54.309-17.245,81.387
					C1833.3,1207.182,1791.953,1136.145,1791.953,1136.145z" />

					<linearGradient id="SVGID_00000140710722852305480140000012814558942906137007_" gradientUnits="userSpaceOnUse"
						x1="1730.4252" y1="977.0705" x2="1730.4252" y2="1450.3146">
						<stop offset="0" style="stop-color:#F9B776" />
						<stop offset="1" style="stop-color:#F47960" />
					</linearGradient>
					<path style="fill:url(#SVGID_00000140710722852305480140000012814558942906137007_);" d="M1801.749,1136.48l-78.267,3.051
					l-72.062-40.248c10.344-6.484,68.838,6.769,68.838,6.769s61.148-9.248,77.698-9.27c13.746-0.018,11.782,19.748,10.722,26.447
					c-0.216,1.366-0.395,2.189-0.395,2.189L1801.749,1136.48z" />
				</g>
			</g>
		</g>
	</g>
</svg>